<?xml version="1.0" encoding="UTF-8" standalone="no"?>
<svg width="25px" height="25px" viewBox="0 0 25 25" version="1.1" xmlns="http://www.w3.org/2000/svg" xmlns:xlink="http://www.w3.org/1999/xlink" xmlns:sketch="http://www.bohemiancoding.com/sketch/ns">
    <title>Untitled 5</title>
    <description>Created with Sketch (http://www.bohemiancoding.com/sketch)</description>
    <defs></defs>
    <g id="Page-1" stroke="none" stroke-width="1" fill="none" fill-rule="evenodd" sketch:type="MSPage">
        <g id="settings" sketch:type="MSLayerGroup" fill="#F0F3F6">
            <path d="M23.4375,10.9375 L21.875,10.9375 C21.8203125,10.9375 21.775,10.9640625 21.7203125,10.96875 C21.4828125,9.5265625 20.925,8.2 20.109375,7.059375 C20.1484375,7.0265625 20.196875,7.0140625 20.234375,6.9765625 L21.3390625,5.871875 C21.95,5.2609375 21.95,4.2734375 21.3390625,3.6625 C20.728125,3.0515625 19.7390625,3.0515625 19.1296875,3.6625 L18.0234375,4.765625 C17.9875,4.8015625 17.9734375,4.8515625 17.940625,4.890625 C16.8015625,4.0734375 15.4734375,3.5171875 14.03125,3.2796875 C14.0359375,3.225 14.0625,3.1796875 14.0625,3.125 L14.0625,1.5625 C14.0625,0.7 13.3640625,0 12.5,0 C11.6359375,0 10.9375,0.7 10.9375,1.5625 L10.9375,3.125 C10.9375,3.1796875 10.9640625,3.225 10.96875,3.2796875 C9.5265625,3.5171875 8.1984375,4.0734375 7.059375,4.890625 C7.0265625,4.8515625 7.0125,4.803125 6.9765625,4.765625 L5.871875,3.6609375 C5.2609375,3.05 4.271875,3.05 3.6609375,3.6609375 C3.0515625,4.271875 3.0515625,5.259375 3.6609375,5.8703125 L4.7671875,6.975 C4.803125,7.0125 4.85,7.0265625 4.890625,7.059375 C4.0734375,8.2 3.5171875,9.5265625 3.2796875,10.96875 C3.225,10.9640625 3.1796875,10.9375 3.125,10.9375 L1.5625,10.9375 C0.6984375,10.9375 0,11.6375 0,12.5 C0,13.3625 0.6984375,14.0625 1.5625,14.0625 L3.125,14.0625 C3.1796875,14.0625 3.225,14.0375 3.2796875,14.03125 C3.5171875,15.4734375 4.075,16.8 4.890625,17.940625 C4.8515625,17.9734375 4.803125,17.9859375 4.7671875,18.0234375 L3.6609375,19.128125 C3.0515625,19.7390625 3.0515625,20.728125 3.6609375,21.3375 C4.271875,21.9484375 5.2609375,21.9484375 5.871875,21.3375 L6.9765625,20.2328125 C7.0125,20.196875 7.0265625,20.146875 7.059375,20.1078125 C8.1984375,20.925 9.5265625,21.48125 10.96875,21.7203125 C10.9640625,21.775 10.9375,21.8203125 10.9375,21.875 L10.9375,23.4375 C10.9375,24.3015625 11.6359375,25 12.5,25 C13.3640625,25 14.0625,24.3015625 14.0625,23.4375 L14.0625,21.875 C14.0625,21.8203125 14.0359375,21.775 14.03125,21.7203125 C15.4734375,21.48125 16.8,20.925 17.940625,20.1078125 C17.9734375,20.146875 17.9859375,20.196875 18.0234375,20.2328125 L19.1296875,21.3375 C19.7390625,21.9484375 20.728125,21.9484375 21.3390625,21.3375 C21.95,20.728125 21.95,19.7390625 21.3390625,19.128125 L20.234375,18.0234375 C20.196875,17.9875 20.1484375,17.975 20.109375,17.940625 C20.925,16.8 21.4828125,15.4734375 21.7203125,14.03125 C21.775,14.0375 21.8203125,14.0625 21.875,14.0625 L23.4375,14.0625 C24.3015625,14.0625 25,13.3625 25,12.5 C25,11.6375 24.3015625,10.9375 23.4375,10.9375 L23.4375,10.9375 Z M12.5,18.75 C9.0484375,18.75 6.25,15.9515625 6.25,12.5 C6.25,9.0484375 9.0484375,6.25 12.5,6.25 C15.9515625,6.25 18.75,9.0484375 18.75,12.5 C18.75,15.9515625 15.9515625,18.75 12.5,18.75 L12.5,18.75 Z" id="Shape" sketch:type="MSShapeGroup"></path>
        </g>
    </g>
</svg>